<svg id="Capa_1" enable-background="new 0 0 512 512" height="512" viewBox="0 0 512 512" width="512" xmlns="http://www.w3.org/2000/svg"><g><path d="m346.23 430.592c-5.858 5.858-5.858 15.354 0 21.211 5.857 5.858 15.354 5.858 21.211 0l74.241-74.24c23.392-23.392 23.392-61.454 0-84.847-23.392-23.392-61.454-23.392-84.847 0l-171.693 171.694c-23.447 23.446-61.398 23.448-84.847 0-22.421-22.421-23.336-58.312-2.776-81.852l10.808 10.808c5.392 5.392 14.003 5.896 19.988 1.096l203.63-163.285 11.708 11.708c5.857 5.857 15.354 5.859 21.211 0 5.858-5.858 5.858-15.354 0-21.211l-11.685-11.685c.36.004.719.013 1.08.013 22.98 0 44.83-7.337 62.883-20.896l11.357 11.357c5.857 5.857 15.354 5.859 21.211 0 5.858-5.858 5.858-15.354 0-21.211l-11.366-11.366c30.768-41.092 27.491-99.778-9.845-137.115-37.606-37.609-96.241-40.56-137.124-9.855l-11.353-11.358c-5.857-5.858-15.354-5.858-21.211 0-5.858 5.858-5.858 15.354 0 21.211l11.366 11.366c-14.136 18.88-21.084 41.471-20.844 64.003l-11.735-11.735c-5.857-5.858-15.354-5.858-21.211 0-5.858 5.858-5.858 15.354 0 21.211l11.708 11.708-163.285 203.633c-4.786 5.968-4.313 14.58 1.096 19.988l10.367 10.367c-32.239 35.268-31.309 90.19 2.812 124.311 35.168 35.169 92.095 35.173 127.269 0l171.693-171.693c11.696-11.696 30.727-11.696 42.424 0 11.696 11.696 11.696 30.727 0 42.423zm61.061-378.611c25.609 25.609 28.787 65.283 9.538 94.385l-103.932-103.932c28.822-19.137 68.5-16.347 94.394 9.547zm-11.665 115.605c-28.82 19.136-68.499 16.348-94.394-9.547-25.609-25.609-28.787-65.282-9.538-94.385zm-146.192-18.922 61.174 61.174-190.571 152.813-23.416-23.416z"/><path d="m237.598 242.885 21.211-21.211c5.858-5.858 5.858-15.354 0-21.211-5.857-5.858-15.354-5.858-21.211 0l-21.211 21.211c-5.858 5.858-5.858 15.354 0 21.211 5.856 5.858 15.353 5.858 21.211 0z"/></g></svg>